<svg width="208" height="33" viewBox="0 0 208 33" fill="none" xmlns="http://www.w3.org/2000/svg">
<path fill-rule="evenodd" clip-rule="evenodd" d="M19.3807 20.8417C22.1235 19.2856 23.739 16.5687 23.739 12.7955C23.739 6.60227 19.4066 2.90909 12.9435 2.90909H0.386719V32H8.28445V22.3977H11.0117L16.1254 32H24.7049L18.7958 21.1477C18.996 21.0513 19.191 20.9493 19.3807 20.8417ZM23.594 31.34L17.8844 20.8541L18.5094 20.5531C21.3636 19.1784 23.079 16.592 23.079 12.7955C23.079 9.86165 22.0582 7.57769 20.324 6.02098C18.5813 4.45657 16.0528 3.56909 12.9435 3.56909H1.04672V31.34H7.62445V21.7377H11.408L16.5216 31.34H23.594ZM7.62445 16.9214V8.55591H11.0685C12.5215 8.55591 13.7983 8.83605 14.724 9.54387C15.6824 10.2766 16.1604 11.3858 16.1604 12.7955C16.1604 14.2011 15.6796 15.2879 14.7122 15.9938C13.7851 16.6701 12.5104 16.9214 11.0685 16.9214H7.62445ZM41.7646 32H49.2077V10.1818H41.3668V22.4545C41.381 24.6136 40.131 25.9205 38.185 25.9205C36.2106 25.9205 35.0742 24.6136 35.06 22.4545V10.1818H27.2191V24.1023C27.2333 28.875 30.2447 32.2841 34.8327 32.2841C37.675 32.2841 39.9425 31.026 41.1046 28.8511C41.2724 28.5369 41.4172 28.2036 41.5373 27.8523H41.7646V32ZM27.8791 24.1003L27.8791 10.8418H34.4L34.4 22.4545L34.4 22.4589C34.4078 23.6472 34.7253 24.6866 35.3951 25.4367C36.0745 26.1977 37.0447 26.5805 38.185 26.5805C39.311 26.5805 40.2964 26.1982 40.9947 25.4463C41.688 24.6996 42.0343 23.6577 42.0268 22.4526V10.8418H48.5477V31.34H42.4246V27.1923H41.0654L40.9128 27.6388C40.065 30.1189 37.8444 31.6241 34.8327 31.6241C32.7114 31.6241 30.9923 30.8406 29.7972 29.537C28.5974 28.228 27.8861 26.3498 27.8791 24.1016C27.8791 24.1011 27.8791 24.1007 27.8791 24.1003ZM63.2525 24.1023C64.957 24.4148 65.7241 24.8693 65.7525 25.6932C65.7241 26.6023 64.6871 27.1136 63.2525 27.1136C61.4769 27.1136 60.2269 26.3466 60.0138 24.9545H52.2298C52.2511 25.1784 52.281 25.3984 52.3194 25.6145C53.0495 29.7186 56.8535 32.3977 63.1957 32.3977C69.2326 32.3977 73.6786 29.4574 73.707 24.7841C73.6786 21.5597 71.5195 19.6847 67.0593 18.875L62.6275 18.0795C60.9656 17.7812 60.4968 17.1847 60.5252 16.5455C60.4968 15.6364 61.619 15.125 62.9684 15.125C64.5167 15.125 65.8093 15.9489 65.9229 17.2841H73.1389C73.1292 17.0597 73.1109 16.8397 73.0842 16.6241C72.5613 12.4049 68.7982 9.89773 62.7979 9.89773C56.5621 9.89773 52.7127 12.4545 52.7411 17C52.7127 20.4375 54.9428 22.6392 59.3888 23.4205L63.2525 24.1023ZM72.4187 16.6241C72.177 14.8391 71.2991 13.4169 69.8745 12.3962C68.25 11.2324 65.8646 10.5577 62.7979 10.5577C59.7568 10.5577 57.3852 11.1832 55.797 12.2864C54.2388 13.3687 53.3883 14.9392 53.4011 16.9959L53.4012 17.0055C53.3883 18.5666 53.8819 19.7957 54.8469 20.7329C55.8288 21.6865 57.3563 22.3932 59.5031 22.7704L63.3715 23.4531C64.2425 23.6128 64.9628 23.822 65.4813 24.1466C66.0427 24.498 66.3891 25.0032 66.4121 25.6704L66.4128 25.6921L66.4122 25.7138C66.3888 26.4615 65.9357 27.0016 65.3462 27.3236C64.7742 27.636 64.0356 27.7736 63.2525 27.7736C62.277 27.7736 61.3845 27.5638 60.6868 27.109C60.1309 26.7466 59.7191 26.2404 59.5001 25.6145H52.9907C53.3259 27.3366 54.2573 28.7671 55.7482 29.8139C57.4587 31.0149 59.948 31.7377 63.1957 31.7377C66.1156 31.7377 68.593 31.0256 70.324 29.8041C72.0376 28.595 73.0328 26.8837 73.047 24.7849C73.0332 23.3409 72.5523 22.2532 71.608 21.4185C70.6357 20.5591 69.1161 19.9192 66.9418 19.5245C66.9417 19.5244 66.9419 19.5245 66.9418 19.5245L62.5109 18.7292C61.6319 18.5714 60.9695 18.32 60.5213 17.9485C60.0452 17.5539 59.849 17.0543 59.8649 16.5411C59.8514 15.7675 60.3406 15.2256 60.9157 14.914C61.4875 14.6042 62.2234 14.465 62.9684 14.465C64.4906 14.465 66.0194 15.1993 66.4636 16.6241H72.4187ZM83.8922 19.7229C83.9001 18.5188 84.2545 17.4799 84.9457 16.7356C85.642 15.9857 86.619 15.6014 87.734 15.6014C88.8852 15.6014 89.8639 15.982 90.5452 16.7451C91.2172 17.4977 91.5264 18.54 91.519 19.7292V31.34H98.0399V18.0776C98.0466 15.8299 97.3421 13.9529 96.1431 12.6448C94.949 11.3421 93.2232 10.5577 91.0863 10.5577C88.119 10.5577 85.9977 12.0497 85.1179 14.5487L84.9627 14.9895H83.6081V3.56909H77.3713V31.34H83.8922V19.7229ZM84.5522 32H76.7113V2.90909H84.2681V14.3295H84.4954C84.618 13.9813 84.7626 13.6508 84.9281 13.3391C86.0856 11.159 88.2652 9.89773 91.0863 9.89773C95.7028 9.89773 98.7141 13.3068 98.6999 18.0795V32H90.859V19.7273C90.8732 17.5682 89.7369 16.2614 87.734 16.2614C85.8164 16.2614 84.5664 17.5682 84.5522 19.7273V32ZM110.412 32H102.571V10.1818H110.412V32ZM109.752 10.8418H103.231V31.34H109.752V10.8418ZM106.491 7.24909C108.306 7.24909 109.695 5.89286 109.695 4.32955C109.695 2.76623 108.306 1.41 106.491 1.41C104.677 1.41 103.287 2.76623 103.287 4.32955C103.287 5.89286 104.677 7.24909 106.491 7.24909ZM122.248 2.90909H114.407V32H122.248V25.8068L123.426 24.3153L127.873 32H136.85L129.208 19.7415L136.623 10.1818H127.816L122.532 17.5114H122.248V2.90909ZM128.154 10.8418L122.869 18.1714H121.588V3.56909H115.067V31.34H121.588V25.5775L123.511 23.1439L128.253 31.34H135.661L128.404 19.7004L135.275 10.8418H128.154ZM144.709 23.5691C144.84 25.5057 146.181 26.8864 148.391 26.8864C149.996 26.8864 151.289 26.1903 151.743 24.9545H158.902C158.866 25.1786 158.822 25.3986 158.77 25.6145C157.775 29.7786 153.973 32.3977 148.221 32.3977C141.232 32.3977 136.971 28.2074 136.971 21.1477C136.971 14.3864 141.289 9.89773 148.05 9.89773C154.641 9.89773 158.902 14.1449 158.902 21.0909V22.9091H144.698V23.25C144.698 23.3579 144.701 23.4643 144.709 23.5691ZM158.242 22.2491H144.038V23.25C144.038 24.4446 144.427 25.5291 145.199 26.318C145.973 27.1099 147.076 27.5464 148.391 27.5464C149.995 27.5464 151.47 26.9082 152.168 25.6145H158.09C157.635 27.3664 156.638 28.8019 155.172 29.8424C153.487 31.0376 151.145 31.7377 148.221 31.7377C144.858 31.7377 142.228 30.7322 140.44 28.9523C138.653 27.173 137.631 24.544 137.631 21.1477C137.631 17.9091 138.662 15.2725 140.447 13.4488C142.229 11.6267 144.82 10.5577 148.05 10.5577C151.201 10.5577 153.732 11.5697 155.476 13.3512C157.221 15.134 158.242 17.7538 158.242 21.0909V22.2491ZM144.023 19.2509L144.038 18.576C144.09 16.2653 146.011 14.7491 148.221 14.7491C150.479 14.7491 152.294 16.2979 152.346 18.5759L152.362 19.2509H144.023ZM144.698 18.5909H151.686C151.681 18.362 151.655 18.1415 151.608 17.9309C151.276 16.4163 149.929 15.4091 148.221 15.4091C146.536 15.4091 145.125 16.4071 144.778 17.9309C144.73 18.1413 144.703 18.3617 144.698 18.5909ZM172.159 24.1023C173.863 24.4148 174.63 24.8693 174.659 25.6932C174.63 26.6023 173.593 27.1136 172.159 27.1136C170.383 27.1136 169.133 26.3466 168.92 24.9545H161.136C161.157 25.1784 161.187 25.3984 161.226 25.6145C161.956 29.7186 165.76 32.3977 172.102 32.3977C178.139 32.3977 182.585 29.4574 182.613 24.7841C182.585 21.5597 180.426 19.6847 175.966 18.875L171.534 18.0795C169.872 17.7812 169.403 17.1847 169.431 16.5455C169.403 15.6364 170.525 15.125 171.875 15.125C173.423 15.125 174.716 15.9489 174.829 17.2841H182.045C182.035 17.0597 182.017 16.8397 181.99 16.6241C181.468 12.4049 177.704 9.89773 171.704 9.89773C165.468 9.89773 161.619 12.4545 161.647 17C161.619 20.4375 163.849 22.6392 168.295 23.4205L172.159 24.1023ZM181.325 16.6241C181.083 14.8391 180.205 13.4169 178.781 12.3962C177.156 11.2324 174.771 10.5577 171.704 10.5577C168.663 10.5577 166.291 11.1832 164.703 12.2864C163.145 13.3687 162.295 14.9392 162.307 16.9959L162.307 17.0055C162.294 18.5666 162.788 19.7957 163.753 20.7329C164.735 21.6865 166.263 22.3932 168.409 22.7704L172.278 23.4531C173.149 23.6128 173.869 23.822 174.388 24.1466C174.949 24.498 175.295 25.0032 175.318 25.6704L175.319 25.6921L175.318 25.7138C175.295 26.4615 174.842 27.0016 174.252 27.3236C173.68 27.636 172.942 27.7736 172.159 27.7736C171.183 27.7736 170.291 27.5638 169.593 27.109C169.037 26.7466 168.625 26.2404 168.406 25.6145H161.897C162.232 27.3366 163.164 28.7671 164.654 29.8139C166.365 31.0149 168.854 31.7377 172.102 31.7377C175.022 31.7377 177.499 31.0256 179.23 29.8041C180.944 28.595 181.939 26.8837 181.953 24.7849C181.939 23.3409 181.459 22.2532 180.514 21.4185C179.542 20.5591 178.022 19.9192 175.848 19.5245C175.848 19.5244 175.848 19.5245 175.848 19.5245L171.417 18.7292C170.538 18.5714 169.876 18.32 169.428 17.9485C168.951 17.5538 168.755 17.0541 168.771 16.5407C168.758 15.7673 169.247 15.2256 169.822 14.914C170.394 14.6042 171.13 14.465 171.875 14.465C173.397 14.465 174.926 15.1993 175.37 16.6241H181.325ZM192.798 19.7229C192.806 18.5188 193.161 17.4799 193.852 16.7356C194.548 15.9857 195.525 15.6014 196.64 15.6014C197.791 15.6014 198.77 15.982 199.451 16.7451C200.124 17.4982 200.433 18.5414 200.425 19.7316V31.34H206.946V18.0776C206.953 15.8299 206.248 13.9529 205.049 12.6448C203.855 11.3421 202.129 10.5577 199.993 10.5577C197.025 10.5577 194.904 12.0497 194.024 14.5487L193.869 14.9895H192.514V3.56909H186.278V31.34H192.798V19.7229ZM193.458 32H185.618V2.90909H193.174V14.3295H193.402C193.524 13.9813 193.669 13.6508 193.834 13.339C194.992 11.159 197.171 9.89773 199.993 9.89773C204.609 9.89773 207.62 13.3068 207.606 18.0795V32H199.765V19.7273C199.779 17.5682 198.643 16.2614 196.64 16.2614C194.723 16.2614 193.473 17.5682 193.458 19.7273V32ZM8.28445 16.2614H11.0685C13.8384 16.2614 15.5004 15.2812 15.5004 12.7955C15.5004 10.2955 13.8384 9.21591 11.0685 9.21591H8.28445V16.2614ZM110.355 4.32955C110.355 6.30398 108.622 7.90909 106.491 7.90909C104.36 7.90909 102.627 6.30398 102.627 4.32955C102.627 2.35511 104.36 0.75 106.491 0.75C108.622 0.75 110.355 2.35511 110.355 4.32955Z" fill="black"/>
</svg>
